<?xml version="1.0" encoding="UTF-8"?>
<svg id="_レイヤー_2" data-name="レイヤー 2" xmlns="http://www.w3.org/2000/svg" viewBox="0 0 507.07 507.07">
  <defs>
    <style>
      .cls-1 {
        fill: #3f3932;
      }

      .cls-2 {
        fill: none;
        stroke: #3f3932;
        stroke-miterlimit: 10;
        stroke-width: 20px;
      }
    </style>
  </defs>
  <g id="_レイヤー_1-2" data-name="レイヤー 1">
    <g>
      <path class="cls-1" d="M196.25,20c47.08,0,91.34,18.33,124.63,51.62,33.29,33.29,51.62,77.55,51.62,124.63s-18.33,91.34-51.62,124.63c-33.29,33.29-77.55,51.62-124.63,51.62s-91.34-18.33-124.63-51.62c-33.29-33.29-51.62-77.55-51.62-124.63s18.33-91.34,51.62-124.63c33.29-33.29,77.55-51.62,124.63-51.62M196.25,0C87.86,0,0,87.86,0,196.25s87.86,196.25,196.25,196.25,196.25-87.86,196.25-196.25S304.64,0,196.25,0h0Z"/>
      <line class="cls-2" x1="328" y1="328" x2="500" y2="500"/>
    </g>
  </g>
</svg>