<?xml version="1.0" encoding="UTF-8"?>
<svg id="_レイヤー_2" data-name="レイヤー 2" xmlns="http://www.w3.org/2000/svg" viewBox="0 0 424.34 107.7">
  <defs>
    <style>
      .cls-1 {
        fill: #f0eee9;
      }
    </style>
  </defs>
  <g id="_レイヤー_1-2" data-name="レイヤー 1">
    <path class="cls-1" d="M369.02,0h-146.17l-.19,93.49L170.18,0h-101.03v94.8H14.55V0H0v107.7h162.75V19.2l-.02-6.3,53.46,94.8h17.97V12.9h36.45v94.8h14.55V12.9h55.21c-4.07,3.91-7.35,8.5-9.82,13.82-3.79,8.15-5.69,17.15-5.69,27s1.89,18.86,5.69,27c3.79,8.15,9.45,14.64,16.98,19.47,7.53,4.83,16.6,7.25,27.22,7.25s19.38-2.42,26.86-7.25c7.48-4.83,13.15-11.35,16.98-19.54,3.84-8.19,5.76-17.17,5.76-26.93s-1.85-18.17-5.54-26.36c-3.7-8.19-9.29-14.8-16.77-19.83-7.49-5.02-16.63-7.53-27.43-7.53M148.65,94.8h-64.95v-36h46.48v-12.9h-46.48V12.9h64.95v81.9ZM406.66,75.98c-3.03,6.44-7.32,11.47-12.88,15.08-5.56,3.61-11.96,5.42-19.18,5.42s-13.61-1.78-19.18-5.34c-5.56-3.56-9.86-8.59-12.88-15.08-3.03-6.49-4.54-13.93-4.54-22.33s1.54-15.81,4.61-22.25c3.07-6.44,7.37-11.47,12.88-15.08,5.51-3.61,11.83-5.42,18.96-5.42s13.61,1.78,19.18,5.34c5.56,3.56,9.88,8.59,12.96,15.08,3.07,6.49,4.61,13.93,4.61,22.33s-1.51,15.81-4.54,22.25Z"/>
  </g>
</svg>